<svg xmlns="http://www.w3.org/2000/svg" width="100%" height="100%" preserveAspectRatio="xMidYMid meet" viewBox="0 0 40 40" fill="none" xmlns:v="https://vecta.io/nano"><circle cx="20" cy="20" r="20" fill="transparent"></circle><path d="M30.931 19.213c0-.046 0-.092-.023-.115C30.219 13.975 25.807 10 20.5 10a10.5 10.5 0 0 0-10.408 9.167c-.046.437-.092.896-.092 1.356 0 5.79 4.71 10.5 10.5 10.5s10.5-4.71 10.5-10.5c0-.459-.023-.896-.069-1.31zM20.5 11.149c4.297 0 7.904 2.895 9.007 6.847-1.769-.965-4.894-2.068-8.984-2.068h-.046c-4.113 0-7.237 1.126-9.006 2.068 1.126-3.952 4.733-6.847 9.03-6.847zm-1.976 18.496c-3.63-.781-6.479-3.676-7.192-7.329-.069-.368-.138-.758-.161-1.149.988-.046 3.722.023 5.859 1.907 1.7 1.493 2.573 3.768 2.642 6.755-.391-.046-.781-.115-1.149-.184zm1.976-6.778c-1.31 0-2.39-1.057-2.39-2.366a2.39 2.39 0 0 1 2.39-2.39 2.39 2.39 0 0 1 2.39 2.39c0 1.31-1.08 2.366-2.39 2.366zm1.976 6.778c.092-2.55.85-4.48 2.252-5.744 1.654-1.471 3.814-1.654 4.802-1.654h.161c-.689 3.676-3.561 6.594-7.215 7.398z" fill="#027afd"></path><path d="M22.89 20.5c0 1.31-1.057 2.366-2.39 2.366s-2.39-1.057-2.39-2.366a2.39 2.39 0 0 1 2.39-2.39 2.39 2.39 0 0 1 2.39 2.39z" fill="#fff"></path><path d="M19.673 30.173a.57.57 0 1 1-1.149 0v-.528c-.092-2.55-.85-4.48-2.252-5.721-1.746-1.539-4.044-1.631-4.94-1.608-.253 0-.391.023-.391.023-.322.046-.597-.184-.643-.506s.184-.597.505-.643c.023 0 .161-.023.391-.023.988-.046 3.722.023 5.859 1.907 1.7 1.493 2.573 3.768 2.642 6.755-.023.092-.023.23-.023.345z" fill="#027afd"></path></svg>