<svg xmlns="http://www.w3.org/2000/svg" width="100%" height="100%" preserveAspectRatio="xMidYMid meet" viewBox="0 0 40 40" fill="none" xmlns:v="https://vecta.io/nano"><circle cx="20" cy="20" r="20" fill="transparent"></circle><path d="M8 18.763v8.274c0 .314.247.561.561.561h22.222c.314 0 .561-.247.561-.561v-8.274H8zm5.27 5.942a2.08 2.08 0 0 1-2.085-2.085c0-1.144.942-2.063 2.085-2.063s2.063.942 2.063 2.063c.022 1.144-.919 2.085-2.063 2.085zm17.804-7.063H8.269l3.251-4.417c.112-.134.269-.224.448-.224h15.428c.179 0 .336.09.448.224l3.229 4.418z" fill="#007afc"></path></svg>