<svg xmlns="http://www.w3.org/2000/svg" width="100%" height="100%" preserveAspectRatio="xMidYMid meet" viewBox="0 0 40 40" fill="none" xmlns:v="https://vecta.io/nano"><circle cx="20" cy="20" r="20" fill="transparent"></circle><g fill="#007afc"><rect x="16" y="30" width="8" height="1" rx=".5"></rect><path fill-rule="evenodd" d="M9 12a1 1 0 0 0-1 1v14a1 1 0 0 0 1 1h22a1 1 0 0 0 1-1V13a1 1 0 0 0-1-1H9zm3 4a1 1 0 0 0-1 1v6a1 1 0 0 0 1 1h8a1 1 0 0 0 1-1v-6a1 1 0 0 0-1-1h-8zm11.5 2a.5.5 0 1 0 0 1h5a.5.5 0 1 0 0-1h-5zm-.5 3.5a.5.5 0 0 1 .5-.5h5a.5.5 0 1 1 0 1h-5a.5.5 0 0 1-.5-.5z"></path></g></svg>