<svg xmlns="http://www.w3.org/2000/svg" width="100%" height="100%" preserveAspectRatio="xMidYMid meet" viewBox="0 0 40 40" fill="none" xmlns:v="https://vecta.io/nano"><circle cx="20" cy="20" r="20" fill="transparent"></circle><path d="M28.597 27.706l-7.848-16.145a1 1 0 0 0-.897-.561c-.381 0-.718.224-.897.561l-7.848 16.145c-.202.404-.112.852.224 1.166a.95.95 0 0 0 .673.269.96.96 0 0 0 .493-.135l7.355-4.26 7.355 4.261a.98.98 0 0 0 1.166-.134c.314-.314.404-.785.224-1.166z" fill="#007afc"></path><defs></defs></svg>