<svg xmlns="http://www.w3.org/2000/svg" width="100%" height="100%" preserveAspectRatio="xMidYMid meet" viewBox="0 0 40 40" fill="none" xmlns:v="https://vecta.io/nano"><circle cx="20" cy="20" r="20" fill="transparent"></circle><path d="M28.551 14.391c-2.736-4.014-8.14-5.516-12.557-3.498-2.624 1.188-4.552 3.341-5.471 6.054a10.2 10.2 0 0 0 .717 8.095 10.25 10.25 0 0 0 8.611 5.292h.045c.426 0 .83-.157 1.121-.448.336-.314.516-.74.516-1.188l.067-4.933c0-.291.202-.426.269-.471a.51.51 0 0 1 .538.023l4.193 2.624a1.56 1.56 0 0 0 1.256.202 1.69 1.69 0 0 0 1.054-.785 10.12 10.12 0 0 0-.359-10.965zm-15.786 3.655a1.73 1.73 0 0 1 1.659-1.233c.157 0 .314.022.471.067.919.269 1.435 1.233 1.166 2.13-.134.448-.426.807-.83 1.031-.247.135-.538.202-.83.202-.157 0-.336-.022-.493-.067-.448-.135-.807-.426-1.031-.83-.179-.404-.247-.875-.112-1.301zm2.982 6.682c-.269.134-.538.202-.83.202-.605 0-1.211-.314-1.502-.897-.448-.83-.157-1.884.673-2.332s1.883-.157 2.332.673c.471.852.157 1.906-.673 2.355zm2.444-8.364a1.81 1.81 0 0 1-.83.202c-.605 0-1.211-.314-1.502-.897-.224-.404-.269-.874-.135-1.301.135-.449.426-.807.83-1.032s.875-.269 1.3-.134c.448.134.807.426 1.032.83a1.73 1.73 0 0 1-.695 2.332zm5.516-1.547a1.73 1.73 0 0 1-1.659 1.233c-.157 0-.314-.022-.471-.067-.919-.269-1.435-1.233-1.166-2.13.135-.448.426-.807.83-1.031s.875-.269 1.301-.135c.449.135.807.426 1.032.83s.269.874.134 1.301zm3.7 2.96c-.134.448-.426.807-.83 1.031a1.81 1.81 0 0 1-.83.202 1.69 1.69 0 0 1-1.502-.897c-.224-.404-.269-.875-.135-1.301.135-.448.426-.807.83-1.031s.875-.269 1.301-.134c.448.134.807.426 1.031.83a1.87 1.87 0 0 1 .134 1.301z" fill="#007afc"></path><defs></defs></svg>