<svg xmlns="http://www.w3.org/2000/svg" width="100%" height="100%" preserveAspectRatio="xMidYMid meet" viewBox="0 0 40 40" fill="none" xmlns:v="https://vecta.io/nano"><circle cx="20" cy="20" r="20" fill="transparent"></circle><g fill="#007afc"><path d="M33.619 22.266L19.81 30 6 22.266l4.015-2.255.07-.045a.45.45 0 0 0 .209.203l4.572 2.57c.023 0 .023.023.046.023l4.874 2.728 4.92-2.751 4.572-2.57c.023-.023.046-.023.07-.045a.52.52 0 0 0 .162-.158l.07.045 4.038 2.255zm-19.433-5.163l-3.435 1.917-3.435-1.917 3.435-1.939 3.435 1.939zm4.618 2.57l-3.458 1.939-3.435-1.939 3.435-1.939 3.458 1.939zm4.596 2.593l-3.435 1.916-3.458-1.916 3.458-1.939 3.435 1.939zm.139-5.254l-3.574 2.007-3.458-1.917 3.667-2.052 3.365 1.962zm4.479 2.639l-3.458 1.962-3.435-1.939 3.551-1.984 3.342 1.962zM15.694 12.39l3.342 1.984-3.69 2.074-3.435-1.939 3.783-2.12zm7.706-.451l-3.203 1.781-3.365-1.962L19.965 10l3.435 1.939z"></path><path d="M27.995 14.509l-3.319 1.872-3.365-1.984 3.249-1.826 3.435 1.939zm4.619 2.594l-3.435 1.917-3.365-1.984 3.342-1.871 3.458 1.939zm-22.351 2.863l-.07.045.279.158a.45.45 0 0 1-.209-.203zm19.403 0c-.046.068-.093.135-.162.18l.232-.135-.07-.045z"></path></g></svg>