<svg xmlns="http://www.w3.org/2000/svg" width="100%" height="100%" preserveAspectRatio="xMidYMid meet" viewBox="0 0 40 40" fill="none" xmlns:v="https://vecta.io/nano"><circle cx="20" cy="20" r="20" fill="transparent"></circle><path d="M10.022 13.41L10 29.712c0 .179.09.359.247.471s.359.112.538.045l5.718-2.534V10.181l-6.144 2.736a.56.56 0 0 0-.336.493zm7.602 14.284l5.337 2.399V12.558l-5.337-2.377v17.513zm12.692-17.603c-.157-.112-.359-.112-.538-.045L24.06 12.58v17.513l6.144-2.736c.202-.09.336-.291.336-.516l.022-16.28c0-.202-.09-.381-.247-.471z" fill="#007afc"></path><defs></defs></svg>