<svg xmlns="http://www.w3.org/2000/svg" width="100%" height="100%" preserveAspectRatio="xMidYMid meet" viewBox="0 0 40 40" fill="none" xmlns:v="https://vecta.io/nano"><circle cx="20" cy="20" r="20" fill="transparent"></circle><path fill-rule="evenodd" d="M20.618 8.201a2 2 0 0 0-1.236 0l-5.817 1.89a2 2 0 0 0-1 .726l-3.595 4.949a2 2 0 0 0-.382 1.176v6.117a2 2 0 0 0 .382 1.176l3.595 4.949a2 2 0 0 0 1 .726l5.817 1.89a2 2 0 0 0 1.236 0l5.817-1.89a2 2 0 0 0 1-.726l3.595-4.949a2 2 0 0 0 .382-1.176v-6.117a2 2 0 0 0-.382-1.176l-3.595-4.949a2 2 0 0 0-1-.726l-5.817-1.89zM20 24a4 4 0 1 0 0-8 4 4 0 1 0 0 8z" fill="#007afc"></path><defs></defs></svg>