<svg xmlns="http://www.w3.org/2000/svg" width="100%" height="100%" preserveAspectRatio="xMidYMid meet" viewBox="0 0 40 40" fill="none" xmlns:v="https://vecta.io/nano"><circle cx="20" cy="20" r="20" fill="transparent"></circle><path d="M24.306 10h-7.612c-.926 0-1.694.732-1.694 1.663v16.674c0 .909.768 1.663 1.694 1.663h7.612c.926 0 1.694-.732 1.694-1.663V11.663c0-.931-.768-1.663-1.694-1.663zm-3.795 17.894c-.452 0-.836-.355-.836-.82 0-.444.361-.82.836-.82.452 0 .836.355.836.82s-.384.82-.836.82zm.926-14.701h-1.852c-.316 0-.565-.244-.565-.554s.248-.554.565-.554h1.852c.316 0 .565.244.565.554a.57.57 0 0 1-.565.554z" fill="#007afc"></path></svg>