<svg xmlns="http://www.w3.org/2000/svg" width="100%" height="100%" preserveAspectRatio="xMidYMid meet" viewBox="0 0 40 40" fill="none" xmlns:v="https://vecta.io/nano"><circle cx="20" cy="20" r="20" fill="transparent"></circle><path d="M20 9c-4.411 0-8 3.589-8 8 0 4.27 7.249 12.715 7.554 13.067.117.117.281.211.446.211s.328-.07.446-.211C20.751 29.716 28 21.246 28 17c0-4.411-3.59-8-8-8zm0 10.487c-1.619 0-2.933-1.314-2.933-2.932s1.314-2.933 2.933-2.933 2.933 1.314 2.933 2.933-1.314 2.932-2.933 2.932z" fill="#007afc"></path><defs></defs></svg>