<svg xmlns="http://www.w3.org/2000/svg" width="100%" height="100%" preserveAspectRatio="xMidYMid meet" viewBox="0 0 40 40" fill="none" xmlns:v="https://vecta.io/nano"><circle cx="20" cy="20" r="20" fill="transparent"></circle><g fill="#007afc"><path d="M20 16.667l-1.09 2.243L16.667 20l2.243 1.09L20 23.333l1.09-2.243L23.333 20l-2.243-1.09L20 16.667z"></path><path fill-rule="evenodd" d="M33.985 19.419a2.49 2.49 0 0 1-.069-.087c-.329-.426-1.78-2.306-3.982-4.187-3.288-2.812-6.75-4.311-9.935-4.311s-6.646 1.5-9.935 4.311c-2.201 1.881-3.653 3.761-3.982 4.187h0l-.069.087a1.02 1.02 0 0 0 0 1.162 2.54 2.54 0 0 1 .069.087h0c.329.426 1.78 2.306 3.982 4.187 3.289 2.812 6.75 4.311 9.935 4.311s6.646-1.5 9.935-4.311c2.201-1.881 3.653-3.761 3.982-4.187l.069-.087a1.02 1.02 0 0 0 0-1.162zM20 25.833c3.222 0 5.833-2.612 5.833-5.833S23.222 14.167 20 14.167 14.167 16.778 14.167 20s2.612 5.833 5.833 5.833z"></path></g></svg>