<svg class="snap" xmlns="http://www.w3.org/2000/svg" width="112px" height="28px" preserveAspectRatio="xMidYMid meet" viewBox="0 0 112 28" fill="currentColor" xmlns:v="https://vecta.io/nano"><path d="M.407 20.15C.4 18.4.24 16.354.085 14.797a.64.64 0 0 1 .54-.7l.025-.004c.327-.05.64.155.723.477a7.54 7.54 0 0 0 .925 2.217c.384.607 1.727 2.703 4.55 2.703 2.056 0 3.564-1.463 3.564-3.312 0-1.7-1.37-2.398-4.056-3.42l-2.4-.992C2.846 11.24.27 10.026.27 6.66.27 2.9 3.257.702 7.067.702c.925 0 2.24.13 3.56.74a.64.64 0 0 0 .808-.241l.218-.346a.64.64 0 0 1 .526-.301.65.65 0 0 1 .661.602l.52 4.695c.095.235.047.504-.125.7a.64.64 0 0 1-.674.174.65.65 0 0 1-.439-.544c-.344-.914-.538-1.342-.916-1.912-.904-1.24-2.1-2.095-3.617-2.095-1.947 0-3.097 1.598-3.097 2.895 0 1.5 1.315 2.124 1.9 2.4 1.18.58 2.4.966 3.645 1.463 1.973.773 4.686 1.96 4.686 5.6 0 3.585-2.85 6.592-7.37 6.592-2.247 0-3.7-.715-4.56-1.258a.64.64 0 0 0-.89.215l-.243.404c-.108.178-.294.293-.5.3l-.046.004a.64.64 0 0 1-.484-.166c-.13-.12-.207-.3-.2-.47zm14.908-.158a.56.56 0 0 1 .462-.553c.414-.07.915-.248 1-.778.082-.636.082-2.3.082-2.705l-.027-3.504c0-1.385-.46-1.765-1.1-1.95a.56.56 0 0 1-.4-.538V9.9a.56.56 0 0 1 .465-.552c1.365-.24 3.428-.828 4.5-1.204a.55.55 0 0 1 .429.028.56.56 0 0 1 .281.327l.062.213a.56.56 0 0 0 .331.367.55.55 0 0 0 .49-.04c1.034-.605 2.015-1.054 3.46-1.054 1.042 0 2.084.276 2.934.882 1.335.933 1.558 2.358 1.67 3.867v2.422l-.054 3.036c0 .698.188 1.123 1.094 1.292a.55.55 0 0 1 .44.55.56.56 0 0 1-.175.409c-.112.106-.263.16-.417.15l-3.876-.087-2.243.08c-.156.014-.3-.038-.426-.145s-.18-.256-.18-.414v-.118a.56.56 0 0 1 .41-.54c.8-.218.9-.603.877-2.283l-.055-4.304c-.027-1.324-.082-2.84-1.864-2.84-.74 0-1.316.274-1.87.694a.57.57 0 0 0-.23.47l.044 6.533c0 1.266.218 1.616.887 1.794.24.063.4.3.4.538v.073a.56.56 0 0 1-.175.41c-.112.106-.263.16-.417.15l-4.37-.097-1.83.073c-.156.015-.3-.037-.427-.144a.56.56 0 0 1-.181-.415v-.03zM39.187 15.4a.56.56 0 0 0-.218-.442c-.136-.105-.314-.142-.48-.098-.925.236-2.152.78-2.152 2.23 0 .745.384 1.572 1.426 1.572.53 0 .848-.162 1.18-.383a.56.56 0 0 0 .244-.464V15.4zm6.333 3.2a.56.56 0 0 1 .051.828c-1.317 1.342-2.623 1.616-3.342 1.616-.74-.01-1.458-.25-2.055-.7-.2-.154-.36-.33-.5-.527-.174-.233-.5-.3-.74-.128-.754.493-2.3 1.37-4.04 1.37-2.522 0-3.124-1.7-3.124-2.73 0-3.152 4.82-4.47 7-4.865.262-.048.453-.278.454-.547.003-.853.004-1.857-.1-2.203-.33-.966-1.424-.966-1.56-.966a1.52 1.52 0 0 0-1.563 1.159c-.082.36-.082.745-.164 1.104-.22.937-.987 1.296-1.67 1.296-.85 0-1.645-.552-1.645-1.572 0-2.042 3.755-3.698 7.153-3.698 2.357 0 4.083.773 4.083 3.063l-.054 6.152c-.027.47-.056 1.543.657 1.543.177 0 .344-.093.5-.216a.55.55 0 0 1 .68.009zm7.613.774c2.07 0 2.823-2.85 2.823-4.73 0-1.993-.84-4.648-2.906-4.648-1.874 0-1.874 1.9-1.874 2.5l.03 4.427c0 .886 0 2.462 1.93 2.462zm-6.57-6.557c.05-2.113-.254-2.612-1.208-2.872-.23-.068-.4-.28-.387-.518V9.28a.53.53 0 0 1 .473-.527c1.888-.2 3.886-.7 4.868-.974.142-.04.294-.018.42.06s.213.2.242.344l.094.483a.53.53 0 0 0 .307.394.54.54 0 0 0 .502-.032c1.097-.696 2.18-1.06 3.552-1.06 3.383 0 5.48 2.877 5.48 5.92 0 4.177-2.992 7.083-6.486 7.083-1.072 0-1.852-.27-2.393-.56a.54.54 0 0 0-.53.008.53.53 0 0 0-.264.455v3.193c0 1.07.066 1.896 1.223 2.1.25.05.43.268.426.52a.53.53 0 0 1-.162.38.54.54 0 0 1-.388.151l-4.147-.07-2.627.057a.54.54 0 0 1-.395-.145.53.53 0 0 1-.167-.383v-.07c0-.257.18-.487.437-.53 1.04-.176 1.13-.742 1.13-1.53l.028-2.766-.028-8.963zm28.976 7.996c-1.135-.083-1.878-.083-4.852-.083l-3.23.085c-.337.016-.628-.23-.665-.56s.193-.634.525-.692c1.568-.218 1.635-.777 1.635-4.283V6.472c-.028-2.102-.055-2.74-.252-3.126-.2-.5-.543-.606-1.397-.747a.63.63 0 0 1-.531-.62c0-.387.295-.67.653-.66l4.715.063 3.455-.063c.35-.028.657.23.686.576a.63.63 0 0 1-.582.679c-1.657.205-1.657.702-1.657 4.37l.028 8.576c.056 2.906.084 3.072.42 3.514.24.28.614.427 1.2.503a.63.63 0 0 1 .544.623.63.63 0 0 1-.198.472c-.13.123-.306.186-.486.174zm.887-.6c0-.275.2-.5.472-.555.422-.07.933-.25 1-.78.084-.638.084-2.297.084-2.712l-.028-3.514c0-1.4-.47-1.77-1.132-1.955a.56.56 0 0 1-.407-.54v-.066c0-.275.2-.507.474-.553 1.392-.242 3.496-.83 4.603-1.208a.57.57 0 0 1 .438.028c.136.067.24.185.287.328l.064.214a.57.57 0 0 0 .838.328c1.055-.606 2.056-1.057 3.53-1.057 1.062 0 2.124.277 2.992.884 1.363.936 1.592 2.365 1.704 3.878.003.015.003.03.003.045v2.384l-.056 3.044c0 .7.2 1.126 1.116 1.296a.56.56 0 0 1 .271.963.57.57 0 0 1-.426.15l-3.953-.087-2.3.08a.57.57 0 0 1-.434-.145.56.56 0 0 1-.185-.415v-.118a.56.56 0 0 1 .42-.541c.818-.22.92-.605.895-2.3l-.056-4.316c-.03-1.327-.084-2.85-1.902-2.85-.757 0-1.344.274-1.908.696-.15.1-.237.286-.233.47l.044 6.552c0 1.27.22 1.62.905 1.8.244.063.4.3.4.54v.073a.56.56 0 0 1-.179.411.57.57 0 0 1-.425.152l-4.458-.097-1.868.073a.57.57 0 0 1-.436-.144.56.56 0 0 1-.184-.417v-.03zm29.087-2.408c.35.252.4.76.1 1.062-1.542 1.515-3.62 2.373-5.794 2.4-4 0-6.934-2.74-6.934-6.503 0-3.955 3.4-6.5 7.578-6.5 2.74 0 5.34 1.2 5.34 3.182 0 .94-.8 1.742-1.76 1.742-.42 0-.923-.194-1.23-.498-.252-.22-.308-.36-.84-1.55-.252-.526-.8-1.467-1.677-1.467-1.623 0-2.07 2.74-2.07 4.095 0 3.126 1.8 5.228 3.747 5.228 1.04 0 1.9-.473 2.665-1.137.248-.218.615-.237.885-.045zm3.86-1.53c1.37 0 2.543 1.08 2.543 2.517 0 1.412-1.172 2.5-2.515 2.5-1.374.014-2.5-1.076-2.518-2.435 0-1.715 1.343-2.573 2.5-2.573z"></path></svg>