<svg width="56" height="56" viewBox="0 0 56 56" preserveAspectRatio="xMidYMid meet" fill="#566271" xmlns="http://www.w3.org/2000/svg" class="gm">
<path d="M7.22374 0C3.2347 0 0 3.2347 0 7.22374V48.7763C0 52.7653 3.2347 56 7.22374 56H48.7763C52.7653 56 56 52.7653 56 48.7763V7.22374C56 3.2347 52.7653 0 48.7763 0H7.22374ZM7.22374 3.61826H48.7763C50.7708 3.61826 52.3945 5.24201 52.3945 7.23653V48.789C52.3945 50.7836 50.7708 52.4073 48.7763 52.4073H7.22374C5.22922 52.4073 3.60548 50.7836 3.60548 48.789V7.23653C3.61827 5.22922 5.22922 3.61826 7.22374 3.61826Z" fill="#566271"></path>
<path d="M25.2896 37.9342V41.5525H45.158V37.9342H25.2896Z" fill="#566271"></path>
<path d="M25.2896 14.4475V33.8685H29.3553V18.0658H33.4211V33.8685H37.4868V18.0658H40.1973C40.9516 18.0658 41.5526 18.6667 41.5526 19.421V33.8685H45.6183V18.9735C45.6183 16.4804 43.5982 14.4603 41.1051 14.4603H25.2896V14.4475Z" fill="#566271"></path>
<path d="M14.9083 14.4475C12.4151 14.4475 10.395 16.4676 10.395 18.9608V29.3425C10.395 31.8356 12.4151 33.8557 14.9083 33.8557H18.5265V34.7635C18.5265 36.5151 16.9028 37.9215 14.9083 37.9215H12.6452V41.5525H14.9083C19.153 41.5525 22.5795 38.5224 22.5795 34.7763V14.4475H14.9083ZM15.8032 18.0658H18.5137V30.263H15.8032C15.0489 30.263 14.448 29.6621 14.448 28.9078V19.421C14.448 18.6667 15.0617 18.0658 15.8032 18.0658Z" fill="#566271"></path>
</svg>