<svg class="bmw" xmlns="http://www.w3.org/2000/svg" width="56px" height="56px" preserveAspectRatio="xMidYMid meet" viewBox="0 0 56 56" fill="none" xmlns:v="https://vecta.io/nano"><path d="M28 0C12.537 0 0 12.537 0 28s12.537 28 28 28 28-12.537 28-28S43.463 0 28 0zm0 1.82c14.457 0 26.178 11.72 26.178 26.18S42.46 54.178 28 54.178 1.822 42.457 1.822 28 13.543 1.82 28 1.82zm-1.582 1.47a35.38 35.38 0 0 0-2.315.182l-.25 6.869c.549-.093 1.102-.166 1.657-.219l.163-4.639-.03-.32.1.303 1.549 3.474h1.414l1.549-3.472.093-.306-.023.32.163 4.639c.541.051 1.104.126 1.657.219l-.254-6.869a34.41 34.41 0 0 0-2.315-.182l-1.524 3.792-.054.28-.054-.28-1.528-3.792zm15.624 4.256l-3.6 5.665c.455.35 1.055.866 1.44 1.218l3.39-1.759.215-.161-.161.219-1.755 3.39c.38.408.929 1.069 1.237 1.47l5.67-3.603a37.67 37.67 0 0 0-1.073-1.325l-3.591 2.366-.245.215.182-.268 1.587-3.164-1.12-1.12-3.164 1.587-.268.182.212-.247 2.375-3.591a36.99 36.99 0 0 0-1.33-1.073zM12.833 8.832c-.84.086-1.489.66-3.25 2.625a44.28 44.28 0 0 0-1.766 2.133l4.839 4.59c1.603-1.773 2.254-2.431 3.519-3.764.894-.945 1.4-2.03.504-3.073-.485-.565-1.302-.688-1.983-.408l-.065.023.023-.061a1.63 1.63 0 0 0-.026-.942c-.101-.305-.289-.573-.541-.771a1.69 1.69 0 0 0-1.253-.35v-.002zm.014 1.435c.317-.086.646.14.719.467s-.131.635-.359.891c-.513.583-2.406 2.562-2.406 2.562l-.938-.894c.973-1.19 2.009-2.273 2.478-2.702.141-.147.314-.258.506-.324zM28 11.394a16.6 16.6 0 0 0-16.52 14.905v.005c-.264 2.594.087 5.214 1.023 7.648a16.62 16.62 0 0 0 11.136 10.065c2.516.686 5.157.771 7.712.247 3.744-.77 7.108-2.808 9.523-5.772S44.606 31.823 44.604 28A16.62 16.62 0 0 0 28 11.398v-.005zm-12.92.565c.11 0 .224.03.327.1.205.138.299.373.247.607-.061.278-.292.539-.478.742l-2.438 2.613-.98-.933 2.438-2.564c.238-.247.392-.397.555-.478a.77.77 0 0 1 .327-.086h.002zM28 13.575a14.41 14.41 0 0 1 5.523 1.094c1.751.724 3.342 1.787 4.682 3.126s2.402 2.931 3.126 4.682A14.41 14.41 0 0 1 42.425 28H28v14.425a14.41 14.41 0 0 1-5.523-1.094c-1.751-.724-3.342-1.787-4.682-3.126s-2.402-2.931-3.126-4.682A14.41 14.41 0 0 1 13.575 28H28V13.575z" fill="#566271"></path></svg>