<svg class="the-weather-company" xmlns="http://www.w3.org/2000/svg" width="74px" height="58px" preserveAspectRatio="xMidYMid meet" viewBox="0 0 74 58" fill="currentColor" xmlns:v="https://vecta.io/nano"><path d="M0 7.16h9.25l-.425 2.27H5.76v11.334H3.14V9.43H0V7.16zm10.674.62l2.7-.62c.118.542.176 1.47.176 2.416v1.97l-.04.83c.688-.638 1.826-1.063 2.847-1.063 1.236 0 2.296.58 2.6 1.4.197.56.255.714.255 1.836v6.918H16.64V14.83c0-.985-.274-1.352-1.02-1.352-.647 0-1.492.387-2.08.908v7.093h-2.67V10.04c0-.928-.078-1.855-.196-2.26zM27.34 18.662l1.006 1.494c-1.142.896-2.342 1.325-3.736 1.325-2.846 0-4.686-1.942-4.686-4.947 0-1.718.368-2.856 1.24-3.8.813-.878 1.8-1.288 3.117-1.288 1.143 0 2.226.373 2.866 1.008.9.895 1.316 2.184 1.316 4.182v.578H22.73v.075c0 1.474.756 2.315 2.092 2.315.9 0 1.723-.317 2.517-.953zm-4.57-3.266h3v-.112c0-.7-.077-1.083-.3-1.438-.252-.373-.62-.56-1.142-.56-.988 0-1.55.746-1.55 2.072v.038zM0 23.63h2.785l1.13 5.318c.545 2.523.696 4.444.696 4.444l.677-4.3 1.167-5.453h2.88l1.204 6.035.565 3.57c.038-.426.5-3.357.716-4.483l1.072-5.123h2.766l-3.16 13.605H9.615L8.448 31.74c-.452-2.096-.602-3.805-.62-3.92l-.64 3.883-1.072 5.53H3.123L0 23.63zm23.07 11.5l1.007 1.494c-1.142.896-2.342 1.325-3.736 1.325-2.846 0-4.686-1.942-4.686-4.947 0-1.72.368-2.856 1.24-3.8.813-.877 1.8-1.288 3.117-1.288 1.143 0 2.226.373 2.866 1.008.9.895 1.316 2.184 1.316 4.18v.578h-5.73v.075c0 1.474.756 2.315 2.092 2.315.9 0 1.723-.317 2.517-.953zm-4.57-3.267h3v-.112c0-.7-.077-1.082-.3-1.437-.252-.373-.62-.56-1.144-.56-.987 0-1.548.747-1.548 2.072v.037zm7.324-3.245c.62-.4.884-.547 1.564-.822.942-.4 1.753-.586 2.638-.586 1.62 0 2.733.625 3.1 1.74.132.4.17.723.17 1.8l-.056 3.54c0 1.076.17 1.487.905 2.054l-1.338 1.605c-.584-.255-1.112-.704-1.357-1.213l-.584.528c-.472.352-1.15.55-1.942.55-2.148 0-3.317-1.135-3.317-3.13 0-2.348 1.564-3.443 4.637-3.443l.566.02v-.412c0-1.115-.207-1.487-1.13-1.487-.8 0-1.754.4-2.8 1.135l-1.074-1.88zm4.956 4.442h-.113c-1.752 0-2.356.333-2.356 1.526 0 .782.472 1.3 1.112 1.3.47 0 .943-.253 1.32-.684l.038-2.152zm9.72-5.8l-.63 1.7h-1.595v4.954c0 1.234.222 1.557 1.076 1.557.223 0 .445-.058.9-.2l.316 1.52c-.723.303-1.372.437-2.022.437-1.26 0-2.28-.57-2.56-1.423-.148-.417-.167-.608-.167-1.5V28.96h-.945V27.3h.945l.093-2.316 2.522-.645a29.32 29.32 0 0 0-.148 2.923H40.5zm.057-3.738l2.7-.618c.118.542.176 1.468.176 2.416v1.97l-.04.83c.688-.64 1.826-1.064 2.847-1.064 1.236 0 2.296.58 2.6 1.4.197.56.256.714.256 1.835v6.92h-2.572v-6.65c0-.985-.274-1.352-1.02-1.352-.647 0-1.492.387-2.08.9v7.093h-2.67v-11.44c0-.928-.078-1.856-.196-2.26zm18.09 10.883l1.007 1.494c-1.142.896-2.342 1.325-3.736 1.325-2.846 0-4.686-1.942-4.686-4.947 0-1.718.368-2.856 1.24-3.8.813-.878 1.8-1.288 3.117-1.288 1.143 0 2.226.373 2.866 1.008.9.895 1.316 2.184 1.316 4.182v.58h-5.73v.074c0 1.474.756 2.315 2.092 2.315.9 0 1.723-.318 2.517-.953zm-4.57-3.266h3v-.112c0-.7-.077-1.083-.3-1.437-.252-.373-.62-.56-1.142-.56-.988 0-1.55.746-1.55 2.072v.038zm7.117-3.326L63.4 27.2c.22.402.348.842.384 1.397.348-.498.934-1.014 1.4-1.244.2-.095.53-.153.806-.153.365 0 .53.04.915.2l-.677 2.257a1.34 1.34 0 0 0-.714-.192c-.55 0-1.043.268-1.5.822v6.926H61.54V30.68c0-1.32-.147-2.315-.348-2.87zm-52.22 14.03l-1.156 1.8c-.642-.5-1.32-.736-2.038-.736-.86 0-1.706.434-2.165 1.13-.496.755-.716 1.847-.716 3.373 0 1.8.147 2.8.532 3.504a2.64 2.64 0 0 0 2.46 1.47c.697 0 1.302-.207 1.926-.64l.257-.207 1.175 1.658c-1 .847-2.092 1.224-3.543 1.224-1.762 0-3.12-.584-4.166-1.8C.514 51.424 0 49.84 0 47.92c0-1.64.275-2.94.863-4.07 1-1.904 2.826-3.034 4.88-3.034 1.266 0 2.533.415 3.23 1.037zm5.94 1.828c1.347 0 2.397.47 3.2 1.448.756.902 1.088 1.956 1.088 3.517 0 1.655-.37 2.783-1.18 3.723-.72.828-1.66 1.336-3.117 1.336-2.563 0-4.242-1.956-4.242-4.985s1.697-5.04 4.242-5.04zm.037 1.862c-.6 0-1.07.376-1.272.98-.167.507-.258 1.184-.258 2.143 0 1.1.1 1.937.313 2.426.22.526.775.8 1.254.8 1.07 0 1.53-.978 1.53-3.255 0-1.297-.166-2.144-.498-2.577-.24-.32-.627-.508-1.07-.508zm5.683-1.228l2.307-.635c.17.27.247.5.343 1 .667-.654 1.486-1 2.382-1 .8 0 1.468.27 1.983.807a3.13 3.13 0 0 1 .381.481c.895-.923 1.696-1.3 2.764-1.3.762 0 1.486.23 1.924.616.553.48.725 1.058.725 2.405v7.004h-2.478V47.2c0-1.174-.134-1.405-.8-1.405-.477 0-1.143.327-1.697.828v7.08h-2.42v-6.408c0-1.23-.172-1.52-.877-1.52-.477 0-1.124.25-1.677.75v7.178h-2.497v-6.87c0-1.425-.095-2.04-.362-2.52zm14.94-.23l2.258-.406c.095.347.153.618.17.926.437-.54 1.404-.926 2.4-.926a3.47 3.47 0 0 1 1.917.6c1.044.714 1.802 1.987 1.802 4.266 0 2.123-.322 3.222-1.347 4.304-.664.714-1.537 1.12-2.6 1.12-.76 0-1.48-.194-2.03-.522a7.66 7.66 0 0 1 .038.812v3.087L35.728 58V46.575c0-1.294-.02-1.66-.152-2.5zm2.618 7.257c.342.3.892.58 1.404.58 1.253 0 1.746-.868 1.746-3.127 0-.945-.075-1.698-.246-2.18-.2-.54-.6-.83-1.214-.83s-1.233.27-1.7.752v4.806zm7.553-6.256c.622-.4.886-.547 1.565-.82.942-.4 1.753-.586 2.638-.586 1.62 0 2.732.625 3.1 1.74.132.4.17.724.17 1.8l-.056 3.54c0 1.076.17 1.488.905 2.056l-1.33 1.604c-.585-.255-1.112-.705-1.357-1.214l-.584.53c-.472.35-1.15.547-1.942.547-2.148 0-3.317-1.134-3.317-3.13 0-2.348 1.564-3.443 4.637-3.443l.566.02v-.4c0-1.115-.207-1.487-1.13-1.487-.8 0-1.752.4-2.8 1.134l-1.074-1.88zm4.957 4.442h-.113c-1.753 0-2.356.332-2.356 1.526 0 .782.47 1.3 1.112 1.3.472 0 .943-.254 1.32-.684l.038-2.152zm4.086-5.2l2.207-.65c.222.4.352.82.352 1.222l1.095-.726c.5-.267 1.15-.42 1.706-.42 1.057 0 1.985.573 2.28 1.414.13.362.185.783.185 1.393v7.142h-2.448v-6.36c0-1.107-.186-1.43-.834-1.43-.5 0-1.15.343-1.726.878v6.913h-2.485V46.62c0-.84-.113-1.643-.334-2.292zm9.96-.34l2.5-.308 1.624 5.743.492 2.043.292-1.58.365-1.368 1.405-4.684H74l-3.393 10.004c-.64 1.9-1.114 2.737-1.8 3.258-.62.48-1.424.8-2.262.906l-.84-1.696c.53-.155 1.15-.386 1.514-.656a2.92 2.92 0 0 0 .693-.809c.237-.405.3-.578.53-1.157h-.62l-.383-1.157-.492-1.62-2.208-6.92zM49.808 0l-1.08 2.772c-.9 2.412-1.142 4.914-.948 7.47.13 1.73.25 3.47-.308 5.146-1.026 3.1-3.176 4.86-6.363 5.3-3.27.442-5.895-.783-7.714-3.5-2.7-4.043-1.532-10.433 4.545-12.116 1.505-.417 3.06-.654 4.58-1.024 2.55-.622 4.72-1.984 6.748-3.613.16-.13.322-.253.54-.424z"></path></svg>