<svg class="strava" xmlns="http://www.w3.org/2000/svg" width="109px" height="22px" preserveAspectRatio="xMidYMid meet" viewBox="0 0 109 22" fill="none" xmlns:v="https://vecta.io/nano"><path d="M.605 18.014l3.447-4.126c2.1 1.607 4.513 2.284 6.778 2.284 1.162 0 1.666-.31 1.666-.832v-.058c0-.56-.6-.852-2.673-1.278-4.34-.89-8.154-2.13-8.154-6.217V7.73c0-3.68 2.866-6.528 8.212-6.528 3.738 0 6.49.89 8.735 2.653L15.44 8.23c-1.693-1.22-3.724-1.883-5.8-1.898-.968 0-1.415.33-1.415.794v.058c0 .522.522.852 2.576 1.24 4.958.9 8.27 2.342 8.27 6.256v.038c0 4.067-3.363 6.547-8.54 6.547-3.93.02-7.456-1.084-9.916-3.254l.001.001zM25.51 7.052h-5.693V1.57h17.857v5.48H31.98V20.92h-6.47V7.052zm28.22 7.282c2.342-1.143 3.815-3.1 3.815-5.908v-.058c0-1.994-.6-3.43-1.762-4.592-1.357-1.357-3.545-2.208-6.972-2.208h-9.45v19.35h6.47v-5.52h1.375l3.64 5.52h7.38l-4.495-6.584zM51.096 8.89c0 1.183-.948 1.878-2.48 1.878H45.83V6.992h2.83c1.49 0 2.458.6 2.458 1.86v.038h-.02zM67.442.755L57.003 20.92h6.934l3.505-7.05 3.505 7.05h6.934L67.442.755zm30.68 0L87.684 20.92h6.934l3.505-7.05 3.505 7.05h6.934L98.123.755zm-15.34 20.958L93.242 1.55h-6.934L82.803 8.6l-3.525-7.05h-6.934l10.44 20.164z" fill="#566271"></path></svg>