<svg id="toyota" xmlns="http://www.w3.org/2000/svg" viewBox="0 0 122 88" width="122" height="88" fill="none" xmlns:v="https://vecta.io/nano"><path fill-rule="evenodd" d="M57.917 55.386c-4.718-2.942-8.193-13.095-8.193-25.157l.013-1.315.006.006c-13.122-2.053-22.603-7.678-22.846-14.329l-.039.077c-3.211 3.972-5.043 8.565-5.043 13.459 0 14.4 15.878 26.2 36.018 27.243l.085.016h0zM15.747 29.177C15.747 13.064 35.889 0 60.736 0s44.989 13.064 44.989 29.177-20.142 29.178-44.989 29.178S15.747 45.29 15.747 29.177h0zM60.736 4.211c4.797 0 8.877 7.244 10.388 17.351l.006-.015c9.332-1.446 15.866-4.782 15.866-8.664 0-5.21-11.758-9.429-26.259-9.429s-26.259 4.219-26.259 9.429c0 3.882 6.533 7.218 15.865 8.664l.006.015C51.86 11.455 55.941 4.211 60.736 4.211h0zM63.64 55.37c20.14-1.043 36.02-12.843 36.02-27.243 0-4.893-1.835-9.486-5.045-13.459l-.039-.077c-.243 6.651-9.721 12.276-22.845 14.329l.006-.006.014 1.315c0 12.063-3.478 22.215-8.193 25.157l.083-.016zm-2.904-33.057c2.149 0 4.238-.091 6.237-.267l-.004.003c-.995-6.479-3.411-11.052-6.234-11.052s-5.239 4.573-6.235 11.052l-.004-.003a71.58 71.58 0 0 0 6.237.267h.002 0zm0 23.993c3.611 0 6.557-7.481 6.714-16.865l.019.007a73.47 73.47 0 0 1-6.733.305c-2.307 0-4.556-.105-6.733-.305l.02-.007c.155 9.383 3.1 16.865 6.712 16.865h0zm.133 30.78c0-5.978 4.832-10.824 10.79-10.824s10.792 4.846 10.792 10.825-4.831 10.824-10.792 10.824-10.79-4.846-10.79-10.824zm10.79 6.855c3.328 0 6.026-3.069 6.026-6.855s-2.698-6.855-6.026-6.855-6.023 3.07-6.023 6.855 2.697 6.855 6.023 6.855zm23.035 3.478h-4.546V70.772h.015-6.358v-3.764h17.231v3.764h-6.327-.015v16.647zm11.842-4.592l-.004.004-1.744 4.588h-5.309l8.393-20.411h2.831 2.827l8.395 20.411h-5.31l-1.744-4.588-.005-.004h-4.163-4.167zm4.167-3.445h2.86l-.002.001-2.839-7.471h-.04l-2.841 7.471-.001-.001h2.862.001 0zm-99.813 8.037H6.343V70.772h.016H0v-3.764h17.232v3.764h-6.326-.016v16.647h0zm7.505-10.333c0-5.978 4.832-10.824 10.791-10.824s10.791 4.846 10.791 10.825-4.831 10.824-10.791 10.824-10.791-4.846-10.791-10.824zm10.791 6.855c3.327 0 6.025-3.069 6.025-6.855s-2.698-6.855-6.025-6.855-6.025 3.07-6.025 6.855 2.698 6.855 6.025 6.855zm21.237 3.478h2.305v-7.655-.095l7.931-12.661h-5.308l-4.928 8.579-4.928-8.579h-5.31l7.932 12.661v.095 7.655h2.305z" fill="currentColor"></path></svg>