<svg class="rever" xmlns="http://www.w3.org/2000/svg" width="149px" height="16px" preserveAspectRatio="xMidYMid meet" viewBox="0 0 149 16" fill="currentColor" xmlns:v="https://vecta.io/nano"><path d="M0 .091v15.784h4.187v-5.283h3.788l9.803 5.317h6.879l-10.501-5.682h1.396c5.815 0 7.743-2.06 7.743-5.084 0-2.991-2.459-5.051-7.842-5.051H0zm4.187 3.124h11.697c2.027 0 3.622.299 3.622 1.927 0 1.761-1.628 2.06-3.622 2.06H6.912L4.154 8.498l.033-5.283zM85.432.025L74.4 11.888h-.033L63.335.025h-5.882l14.854 15.85h4.154L91.314.025h-5.882zm47.992.09c-5.383.04-7.827 2.118-7.804 5.142s1.964 5.07 7.78 5.026l1.395-.01L124.337 16l6.911-.051 9.73-5.389 3.788-.028.039 5.283 4.187-.031L148.875 0l-15.451.115zm11.327 8.356l-2.768-1.275-8.972.067c-1.993.015-3.624-.272-3.637-2.033-.012-1.628 1.581-1.939 3.608-1.954l11.696-.087.073 5.283zm-26.25 4.227l.024 3.09-22.462.207L95.94.212l22.463-.207.024 3.19-18.375.143.058 3.223 18.342-.142.024 3.024-18.409.143.025 3.256 18.409-.143zm-65.4-9.483V.125L30.638.091v15.784l22.463.033v-3.19H34.725l.033-3.223h18.343V6.471H34.692V3.215h18.409z"></path></svg>