<svg class="instacart" preserveAspectRatio="xMidYMid meet" width="146" height="36" viewBox="0 0 146 36" fill="none" xmlns="http://www.w3.org/2000/svg">
<path fill-rule="evenodd" clip-rule="evenodd" d="M20.9302 14.0297C22.9959 16.2124 24.6879 19.7789 23.7203 21.9017C21.1327 27.5754 1.82669 37.5232 0.18773 35.8027C-1.45123 34.0822 8.03192 13.8085 13.438 11.0937C15.4589 10.0779 18.8741 11.8526 20.9398 14.024L20.933 14.0325L20.9302 14.0297Z" fill="currentColor"></path>
<path fill-rule="evenodd" clip-rule="evenodd" d="M31.2149 12.06C30.8722 10.7804 29.9969 9.48684 28.6901 9.3358C26.2957 9.05611 22.5209 13.3215 22.7901 14.3354C23.0592 15.3493 28.3918 17.1323 30.3839 15.6919C31.4105 14.9479 31.5547 13.3425 31.2163 12.06L31.2121 12.0614L31.2149 12.06ZM23.8042 0.237272C25.5826 0.722545 27.3791 1.95741 27.5914 3.8034C27.9798 7.18773 22.0465 12.5215 20.6384 12.1412C19.2304 11.7608 16.7472 4.22575 18.7518 1.4092C19.7867 -0.0424259 22.0215 -0.246605 23.8014 0.230278V0.237272H23.8042ZM66.7924 19.1224L65.4051 18.9126C64.097 18.7168 63.3243 18.2903 63.3243 17.5141C63.3243 16.6219 64.2953 16.0681 65.7686 16.0681C66.7993 16.0681 67.6386 16.4597 68.4418 16.8694L68.6014 16.9505C68.7843 17.0449 68.9869 17.0938 69.1923 17.0932C69.6696 17.0932 70.1079 16.8317 70.3382 16.4121L70.4492 16.208C70.537 16.0487 70.5918 15.8731 70.6102 15.6918C70.6286 15.5105 70.6101 15.3274 70.556 15.1535C70.4478 14.7997 70.2064 14.5144 69.879 14.348C68.7082 13.7578 67.4375 13.2264 65.7672 13.2264C62.2713 13.2264 60.0212 14.9269 60.0212 17.6652C60.0212 19.9125 61.6235 21.3222 64.6546 21.7404L66.0419 21.9222C67.5054 22.1291 68.2171 22.5655 68.2171 23.2577C68.2171 23.8968 67.8745 24.7457 65.6063 24.7457C64.3578 24.7457 63.087 24.424 62.0549 23.7668C61.85 23.6358 61.6123 23.5664 61.3696 23.5668C60.9174 23.5668 60.4873 23.8087 60.2487 24.1989L60.1724 24.3387C59.981 24.652 59.9227 25.0352 60.0143 25.3918C60.1058 25.7484 60.3292 26.0407 60.6427 26.2197C62.4392 27.2378 64.527 27.6 65.6049 27.6C69.2478 27.6 71.5035 25.9917 71.5035 23.1584C71.5035 20.8929 69.9082 19.5923 66.7591 19.1378L66.7924 19.1224ZM109.155 24.0702C109.024 23.9249 108.864 23.8085 108.686 23.7284C108.508 23.6482 108.315 23.6061 108.12 23.6045C107.853 23.6044 107.592 23.681 107.367 23.8255C106.626 24.301 105.813 24.5527 105.017 24.5527C102.828 24.5527 101.239 22.8102 101.239 20.409C101.239 18.0078 102.828 16.2653 105.017 16.2653C105.836 16.2592 106.638 16.5045 107.315 16.9687C107.592 17.1444 107.919 17.2193 108.244 17.1812C108.568 17.143 108.869 16.994 109.098 16.759L109.215 16.6191C109.367 16.4555 109.482 16.2603 109.551 16.0473C109.621 15.8342 109.643 15.6084 109.617 15.3856C109.566 14.9423 109.339 14.5466 108.959 14.3018C107.883 13.5816 106.548 13.2026 105.1 13.2026C100.897 13.2026 97.964 16.1604 97.964 20.3964C97.964 24.6324 100.898 27.5902 105.1 27.5902C106.554 27.5902 107.897 27.2014 108.98 26.4686C109.159 26.3469 109.31 26.1879 109.423 26.0024C109.536 25.8169 109.608 25.6092 109.635 25.3932C109.662 25.175 109.642 24.9535 109.577 24.7436C109.512 24.5337 109.403 24.3403 109.258 24.1765L109.155 24.0702ZM41.1615 8.34568C40.9029 8.34452 40.6467 8.39543 40.4079 8.49542C40.1691 8.5954 39.9525 8.74245 39.7709 8.92794C39.5892 9.11343 39.4461 9.33362 39.3499 9.5756C39.2538 9.81759 39.2066 10.0765 39.211 10.3371C39.211 11.4559 40.0489 12.3034 41.1615 12.3034C42.2741 12.3034 43.1369 11.4405 43.1369 10.3371C43.1395 10.0749 43.0902 9.81474 42.9918 9.57194C42.8935 9.32915 42.7481 9.10857 42.5641 8.92313C42.3802 8.73768 42.1614 8.59109 41.9205 8.49194C41.6797 8.39278 41.4216 8.34306 41.1615 8.34568ZM41.7497 13.3299H40.5983C40.035 13.3299 39.5772 13.7914 39.5772 14.3592V26.2239C39.5772 26.7917 40.035 27.2532 40.5983 27.2532H41.7497C42.3129 27.2532 42.7707 26.7917 42.7707 26.2239V14.3606C42.7707 13.7928 42.3129 13.3313 41.7497 13.3313V13.3299ZM79.5191 24.4898C78.2289 24.4842 76.7279 23.4647 76.7279 21.6928V16.3422H79.5302C80.0934 16.3422 80.5512 15.8807 80.5512 15.3129V14.3731C80.5512 13.8054 80.0934 13.3439 79.5302 13.3439H76.7279V10.256C76.7279 9.68822 76.2701 9.22672 75.7069 9.22672H74.493C73.9298 9.22672 73.472 9.68822 73.472 10.256V21.4998C73.472 24.7373 75.9094 27.5972 79.2985 27.5972C79.637 27.5972 79.9533 27.4643 80.1933 27.2224C80.3116 27.1048 80.4054 26.9645 80.4692 26.8099C80.5331 26.6552 80.5657 26.4893 80.5651 26.3218V25.5288C80.5636 25.2546 80.4542 24.9922 80.2609 24.7992C80.0677 24.6062 79.8063 24.4984 79.5343 24.4996L79.5191 24.4898ZM51.6422 13.2138C47.5581 13.2138 45.2802 16.5058 45.2802 19.3252V26.2239C45.2802 26.7917 45.738 27.2532 46.3013 27.2532H47.4666C48.0298 27.2532 48.4876 26.7917 48.4876 26.2239V19.844C48.4876 17.7085 49.7708 16.2919 51.6436 16.2919C53.5164 16.2919 54.7996 17.7071 54.7996 19.844V26.2239C54.7996 26.7917 55.2574 27.2532 55.8206 27.2532H56.9859C57.5491 27.2532 58.0069 26.7917 58.0069 26.2239V19.3266C58.0069 16.5086 55.729 13.2152 51.645 13.2152L51.6422 13.2138ZM135.645 13.3578C135.201 13.2599 134.091 13.2152 133.518 13.2152L133.379 13.2166C130.216 13.2166 127.297 15.815 127.297 19.3979V26.2225C127.297 26.7903 127.755 27.2518 128.319 27.2518H129.484C130.047 27.2518 130.505 26.7903 130.505 26.2225V19.5154C130.505 17.5659 131.885 16.2947 133.578 16.2947C133.887 16.2989 134.22 16.3366 134.546 16.3995C134.635 16.4177 134.726 16.4275 134.815 16.4275C135.129 16.4262 135.433 16.3189 135.679 16.1226C135.925 15.9264 136.098 15.6526 136.172 15.3451L136.373 14.5018C136.402 14.3797 136.406 14.2531 136.386 14.1293C136.366 14.0054 136.322 13.8868 136.256 13.7802C136.19 13.673 136.104 13.5804 136.002 13.5078C135.899 13.4353 135.784 13.3843 135.661 13.3578H135.645ZM144.165 16.3268C144.728 16.3268 145.186 15.8653 145.186 15.2975V14.3578C145.186 13.79 144.728 13.3285 144.165 13.3285H141.363V10.2518C141.363 9.68403 140.905 9.22253 140.342 9.22253H139.128C138.565 9.22253 138.107 9.68403 138.107 10.2518V21.4956C138.107 24.7331 140.544 27.593 143.933 27.593C144.272 27.593 144.588 27.4602 144.828 27.2182C144.947 27.1006 145.04 26.9603 145.104 26.8057C145.168 26.651 145.201 26.4851 145.2 26.3176V25.5247C145.199 25.2504 145.089 24.988 144.896 24.795C144.703 24.602 144.441 24.4943 144.169 24.4954C142.879 24.4898 141.378 23.4703 141.378 21.6984V16.3366H144.18L144.165 16.3268ZM121.973 14.3172C120.891 13.5942 119.557 13.1984 118.108 13.1984L118.033 13.1998L117.958 13.1984C116.51 13.1984 115.176 13.5788 114.099 14.2976C112.157 15.5311 110.972 17.7029 110.972 20.3908C110.972 23.2074 112.271 25.4561 114.375 26.649C115.406 27.2611 116.581 27.5832 117.777 27.5818C120.07 27.5832 121.453 26.2742 121.89 25.7023V26.1945C121.89 26.7623 122.348 27.2238 122.911 27.2238H124.076C124.64 27.2238 125.097 26.7623 125.097 26.1945V20.3908C125.097 17.7029 123.914 15.5311 121.976 14.3018L121.973 14.3172ZM119.315 24.3345C118.95 24.4579 118.57 24.5294 118.186 24.5471L118.103 24.5499L118.033 24.5513L117.964 24.5499L117.881 24.5471C117.496 24.5294 117.116 24.4579 116.752 24.3345C115.246 23.7989 114.248 22.3095 114.248 20.4188C114.248 18.17 115.64 16.5002 117.614 16.2961H117.646L117.781 16.2863L117.857 16.2821H117.989L118.035 16.2807L118.081 16.2821H118.212L118.289 16.2863L118.423 16.2961H118.455C120.429 16.5002 121.822 18.17 121.822 20.4188C121.822 22.3207 120.823 23.8115 119.318 24.3345H119.315ZM92.9296 14.3172C91.8476 13.5942 90.5131 13.1984 89.0648 13.1984L88.9898 13.1998L88.9149 13.1984C87.4666 13.1984 86.1321 13.5788 85.0556 14.2976C83.1134 15.5311 81.9287 17.7029 81.9287 20.3908C81.9287 23.2074 83.2272 25.4561 85.3317 26.649C86.3623 27.2611 87.537 27.5832 88.7332 27.5818C91.0263 27.5832 92.4094 26.2742 92.8464 25.7023V26.1945C92.8464 26.7623 93.3042 27.2238 93.8674 27.2238H95.0327C95.596 27.2238 96.0537 26.7623 96.0537 26.1945V20.3908C96.0537 17.7029 94.8704 15.5311 92.9324 14.3018L92.9296 14.3172ZM90.2703 24.3359C89.9055 24.4593 89.5254 24.5308 89.1411 24.5485L89.0578 24.5513L88.9885 24.5527L88.9191 24.5513L88.8359 24.5485C88.4515 24.5308 88.0714 24.4593 87.7066 24.3359C86.2015 23.8003 85.2026 22.3109 85.2026 20.4202C85.2026 18.1714 86.5954 16.5016 88.5695 16.2975L88.6014 16.2947L88.736 16.2849L88.8123 16.2807L88.9441 16.2779L88.9898 16.2765L89.0356 16.2779L89.1674 16.2807L89.2437 16.2849L89.3783 16.2947L89.4102 16.2975C91.3842 16.5016 92.7771 18.1714 92.7771 20.4202C92.7771 22.3221 91.7782 23.8129 90.2731 24.3359H90.2703Z" fill="currentColor"></path>
</svg>