<svg class="national-geografic" width="119" height="36" viewBox="0 0 119 36" fill="none" xmlns="http://www.w3.org/2000/svg">
<path d="M0 0V35.9951H24.2945V0H0ZM20.7801 32.3713H3.50123V3.63234H20.7801V32.3713Z" fill="#566271"></path>
<path d="M38.7724 12.55H38.7384C36.8009 9.32828 34.8437 6.48367 32.8703 3.61953H31.3646V16.1481H33.027V7.1634H33.0437C35.0009 10.3973 36.9564 13.2675 38.9303 16.1488H40.4361V3.61953H38.7736V12.55H38.7724ZM50.7681 16.1481L46.9081 3.61953H45.1781L40.9886 16.1481H42.7826L43.8392 12.7294H47.4905L48.4431 16.1481H50.7633H50.7681ZM44.3804 11.1893C44.8648 9.54184 45.3503 8.02374 45.7827 6.08828H45.8186C46.3029 8.02252 46.7359 9.54184 47.1862 11.1893H44.3816H44.3804ZM52.7236 16.1481H54.801V5.30848H57.9865V3.61953H49.5399V5.30848H52.7247V16.1542L52.7236 16.1481ZM60.7205 3.61953H58.661V16.1481H60.7205V3.61953V3.61953ZM67.1267 16.3617C70.2949 16.3617 72.2683 13.4451 72.2683 9.70475C72.2683 6.19628 70.0856 3.40414 67.1267 3.40414C64.1679 3.40414 61.984 6.19689 61.984 9.70475C61.984 13.4463 63.9574 16.3617 67.1267 16.3617ZM67.1267 5.19438C69.1868 5.19438 70.0509 7.39526 70.0509 9.70475C70.0509 12.1027 69.2903 14.5727 67.1267 14.5727C64.9632 14.5727 64.2014 12.1033 64.2014 9.70475C64.2014 7.39526 65.0667 5.19438 67.1267 5.19438ZM75.1918 7.16279H75.211C77.1664 10.3967 79.1218 13.2669 81.0952 16.1481H82.6009V3.61953H80.9385V12.55H80.9038C78.9663 9.32828 77.0091 6.48367 75.0358 3.61953H73.53V16.1481H75.1906V7.1634L75.1918 7.16279ZM86.0095 12.7294H89.6572L90.6092 16.1481H92.9282L89.0766 3.61953H87.3454L83.1553 16.1481H84.9576L86.0113 12.7294H86.0095ZM87.9505 6.08828H87.9846C88.469 8.02252 88.9013 9.54184 89.3528 11.1893H86.5465C87.0326 9.54184 87.5152 8.02252 87.9505 6.08828ZM99.7022 14.4647H95.6V3.61953H93.5394V16.1481H99.7022V14.4641V14.4647ZM37.0789 30.478C36.6454 30.7111 36.179 30.7831 35.6258 30.7831C33.8438 30.7831 32.112 29.0282 32.112 26.0579C32.112 23.2127 33.6178 21.4041 35.8339 21.4041C36.6165 21.4224 37.3806 21.6506 38.0495 22.0656L38.724 20.581C38.0321 20.0429 36.9061 19.6139 35.7819 19.6139C32.1473 19.6139 29.8965 22.6037 29.8965 26.0207C29.8965 29.7079 32.1473 32.5721 35.7119 32.5721C36.89 32.5721 38.0501 32.2517 39.1582 31.802V26.6278H37.0801V30.4768L37.0789 30.478ZM43.1186 26.6302H46.5122V24.9486H43.1186V21.5121H46.581V19.8299H41.0418V32.3573H47.2053V30.6732H43.1192V26.629L43.1186 26.6302ZM52.9879 19.6139C50.0278 19.6139 47.8469 22.406 47.8469 25.9145C47.8469 29.6549 49.8203 32.5727 52.9879 32.5727C56.1554 32.5727 58.1282 29.6549 58.1282 25.9145C58.1282 22.406 55.9473 19.6139 52.9879 19.6139ZM52.9879 30.7825C50.8231 30.7825 50.0619 28.3125 50.0619 25.9133C50.0619 23.6038 50.9272 21.4023 52.9879 21.4023C55.0485 21.4023 55.912 23.6032 55.912 25.9133C55.912 28.3113 55.1514 30.7825 52.9879 30.7825ZM66.0223 30.4774C65.5899 30.7105 65.1217 30.7825 64.5679 30.7825C62.7847 30.7825 61.0536 29.0276 61.0536 26.0573C61.0536 23.2121 62.5605 21.4035 64.7766 21.4035C65.572 21.4035 66.4391 21.7074 66.9904 22.065L67.6661 20.5804C66.9743 20.0422 65.8482 19.6133 64.7222 19.6133C61.0888 19.6133 58.838 22.6031 58.838 26.0201C58.838 29.7073 61.0882 32.5715 64.6547 32.5715C65.8303 32.5715 66.9898 32.2511 68.0991 31.8014V26.6272H66.0217V30.4761L66.0223 30.4774ZM76.9972 23.4452C76.9972 21.0094 75.5596 19.8293 73.2418 19.8293H70.0043V32.3573H72.0811V27.6321H73.0157L74.9712 32.3573H77.3422L74.9024 27.166C76.2335 26.4326 76.9966 24.9474 76.9966 23.4439L76.9972 23.4452ZM72.9464 26.0213C72.7371 26.0396 72.2527 26.0579 72.0793 26.0762V21.5121H72.9984C74.2255 21.5121 74.9179 22.2443 74.9179 23.5336C74.9179 25.2153 73.9331 25.9743 72.9464 26.0213ZM81.5658 19.8293L77.3757 32.3579H79.1756L80.2323 28.9385H83.8848L84.8392 32.3579H87.157L83.2964 19.8293H81.5658ZM80.7705 27.4015C81.2489 25.754 81.7392 24.2323 82.1722 22.3005H82.208C82.6924 24.2329 83.1248 25.754 83.5757 27.4015H80.7651H80.7705ZM102.356 24.6435H98.0446V19.8232H95.9845V32.3573H98.0446V26.3246H102.356V32.3573H104.432V19.8635H102.356V24.6435ZM106.422 32.3561H108.482V19.8293H106.422V32.3561ZM115.753 30.7818C113.745 30.7818 112.048 29.027 112.048 26.0567C112.048 23.2115 113.591 21.4029 115.701 21.4029C116.498 21.4029 117.329 21.7782 117.832 22.1003L118.489 20.581C117.779 20.0795 116.777 19.6139 115.703 19.6139C112.085 19.6139 109.851 22.6037 109.851 26.0207C109.851 29.7079 112.102 32.5721 115.67 32.5721C116.673 32.5721 117.781 32.1602 118.404 31.7136L117.833 30.1558C117.296 30.5134 116.551 30.7818 115.755 30.7818H115.753ZM91.0511 19.8293H87.822V32.3573H89.8994V27.6321H90.8323C93.3091 27.6321 94.8137 25.5545 94.8137 23.4446C94.8131 21.0088 93.3785 19.8287 91.0565 19.8287L91.0511 19.8293ZM90.7581 26.0213C90.5506 26.0378 90.0495 26.0549 89.8934 26.0713V21.5115H90.8263C92.039 21.5115 92.7315 22.2437 92.7315 23.533C92.7309 25.2153 91.7448 25.9676 90.7581 26.0213V26.0213Z" fill="#566271"></path>
</svg>