<svg width="20px" height="20px" viewBox="0 0 24 24" fill="none" xmlns="http://www.w3.org/2000/svg">
<g clip-path="url(#clip0)">
<path d="M7.5456 21.7488C16.6032 21.7488 21.5568 14.2464 21.5568 7.73756C21.5568 7.52636 21.5568 7.31036 21.5568 7.09916C22.5153 6.40234 23.3425 5.54099 24 4.55516C23.1015 4.95259 22.1485 5.21308 21.1728 5.32796C22.2005 4.71318 22.9698 3.74599 23.3376 2.60636C22.3701 3.1802 21.3117 3.58442 20.208 3.80156C19.4651 3.0131 18.4832 2.49129 17.4141 2.31681C16.3449 2.14233 15.248 2.32489 14.293 2.83626C13.338 3.34764 12.5781 4.15935 12.1306 5.14593C11.6832 6.1325 11.5732 7.239 11.8176 8.29436C9.85999 8.19608 7.94493 7.68718 6.19677 6.8007C4.44861 5.91422 2.90645 4.66997 1.6704 3.14876C1.04195 4.23291 0.849978 5.51571 1.13351 6.73635C1.41705 7.95698 2.15481 9.02382 3.1968 9.71996C2.41389 9.70209 1.64675 9.49631 0.96 9.11996V9.18236C0.959686 10.3196 1.35296 11.4219 2.07305 12.3021C2.79313 13.1823 3.79565 13.7862 4.9104 14.0112C4.18593 14.2094 3.42567 14.2389 2.688 14.0976C3.00287 15.0753 3.6153 15.9303 4.43973 16.543C5.26416 17.1557 6.2594 17.4956 7.2864 17.5152C5.54286 18.8856 3.38888 19.6295 1.1712 19.6272C0.779447 19.6213 0.388376 19.5924 0 19.5408C2.25078 20.9865 4.87049 21.7531 7.5456 21.7488Z" fill="#A1ABB9"></path>
</g>
<defs>
<clipPath id="clip0">
<rect width="24" height="24" fill="white"></rect>
</clipPath>
</defs>
</svg>